<svg xmlns="http://www.w3.org/2000/svg" viewBox="0 0 300 620" width="300" height="620" role="img" aria-label="Level complete screen">
  <defs><linearGradient id="g" x1="0" y1="0" x2="1" y2="1"><stop offset="0" stop-color="#2563EB"/><stop offset="0.55" stop-color="#3B82F6"/><stop offset="1" stop-color="#60A5FA"/></linearGradient>
    <radialGradient id="glow" cx="50%" cy="34%" r="60%">
      <stop offset="0" stop-color="#60A5FA" stop-opacity=".34"/><stop offset="1" stop-color="#60A5FA" stop-opacity="0"/>
    </radialGradient>
  </defs>
  <rect width="300" height="620" fill="#FFFFFF"/><rect width="300" height="620" fill="url(#glow)"/>
  
  <g font-family="Inter, sans-serif" font-size="11" fill="#64748B">
    <text x="26" y="34" font-weight="600">9:41</text>
    <g transform="translate(232 25)">
      <rect x="0" y="2" width="16" height="9" rx="2.5" fill="none" stroke="#64748B" stroke-width="1.3"/>
      <rect x="1.6" y="3.6" width="11" height="5.8" rx="1.4" fill="#64748B"/>
      <rect x="18" y="4.6" width="1.8" height="3.8" rx="1" fill="#64748B"/>
    </g>
    <g transform="translate(198 26)" fill="#64748B">
      <rect x="0" y="6" width="3" height="4" rx="1"/><rect x="5" y="4" width="3" height="6" rx="1"/>
      <rect x="10" y="2" width="3" height="8" rx="1"/><rect x="15" y="0" width="3" height="10" rx="1" opacity=".4"/>
    </g>
  </g>

  <circle cx="150" cy="196" r="54" fill="url(#g)" opacity=".14"/>
  <circle cx="150" cy="196" r="40" fill="url(#g)"/>
  <path d="M134 197l11 11 22-23" fill="none" stroke="#FFFFFF" stroke-width="5" stroke-linecap="round" stroke-linejoin="round"/>
  <g font-family="Poppins, sans-serif" text-anchor="middle">
    <text x="150" y="288" font-size="27" font-weight="700" fill="#0F172A" letter-spacing="-.8">Escaped!</text>
    <text x="150" y="316" font-size="13" font-weight="500" fill="#64748B" font-family="Inter, sans-serif">Level 118 · 9 moves · new best</text>
  </g>
  <g transform="translate(150 366)" fill="#F59E0B">
    <g transform="translate(-58 0) scale(1.5)"><path d="M0-12l3.5 7.4 8 1-5.9 5.6 1.5 8L0 6.2-7.1 10l1.5-8L-11.5-3.6l8-1z"/></g>
    <g transform="translate(0 -6) scale(1.9)"><path d="M0-12l3.5 7.4 8 1-5.9 5.6 1.5 8L0 6.2-7.1 10l1.5-8L-11.5-3.6l8-1z"/></g>
    <g transform="translate(58 0) scale(1.5)"><path d="M0-12l3.5 7.4 8 1-5.9 5.6 1.5 8L0 6.2-7.1 10l1.5-8L-11.5-3.6l8-1z"/></g>
  </g>
  <g transform="translate(27 508)">
    <rect width="246" height="50" rx="25" fill="url(#g)"/>
    <text x="123" y="31" text-anchor="middle" font-family="Poppins, sans-serif" font-size="15" font-weight="650" fill="#FFFFFF">Next level</text>
  </g>
  <rect x="112" y="596" width="76" height="5" rx="2.5" fill="#64748B" opacity=".45"/>
</svg>
